<?xml version="1.0" standalone="no"?>
<!DOCTYPE svg PUBLIC "-//W3C//DTD SVG 20010904//EN"
 "http://www.w3.org/TR/2001/REC-SVG-20010904/DTD/svg10.dtd">
<svg version="1.0" xmlns="http://www.w3.org/2000/svg"
 width="393.000000pt" height="393.000000pt" viewBox="0 0 393.000000 393.000000"
 preserveAspectRatio="xMidYMid meet">
<metadata>
Created by potrace 1.14, written by Peter Selinger 2001-2017
</metadata>
<g transform="translate(0.000000,393.000000) scale(0.100000,-0.100000)"
fill="#000000" stroke="none">
<path d="M1881 3230 c-17 -15 -38 -20 -78 -20 -57 0 -98 -17 -189 -76 -28 -19
-72 -38 -97 -43 -32 -6 -62 -22 -99 -53 -29 -25 -84 -66 -123 -91 -72 -48
-152 -123 -175 -167 -23 -42 -53 -200 -57 -296 -4 -78 -1 -103 21 -165 37
-111 56 -202 56 -278 l0 -69 44 -33 c62 -48 106 -138 106 -216 0 -28 9 -61 25
-91 14 -26 25 -60 25 -76 0 -42 72 -181 130 -251 67 -80 77 -100 85 -167 l7
-57 -61 -61 c-33 -34 -61 -66 -61 -71 0 -14 -80 -51 -143 -65 -31 -8 -83 -27
-115 -43 -31 -16 -91 -39 -132 -51 -80 -25 -318 -110 -385 -138 -55 -23 -235
-209 -273 -281 -38 -71 -122 -304 -122 -336 l0 -25 1830 0 1830 0 -1 63 0 62
-16 -32 c-27 -54 -35 -45 -48 58 -5 42 -56 152 -113 249 -29 48 -138 141 -225
192 -40 23 -108 65 -152 93 -92 60 -317 179 -357 188 -37 10 -80 55 -111 119
-40 81 -97 149 -151 180 -45 27 -54 29 -115 23 -36 -4 -73 -9 -82 -11 -30 -8
-42 85 -15 115 32 36 84 157 100 233 4 15 17 39 31 54 14 15 29 43 35 63 5 20
28 73 51 116 99 188 107 215 89 280 -7 25 -17 48 -21 51 -14 9 -10 37 11 79
11 22 20 59 20 85 0 25 4 61 10 80 10 35 -3 143 -19 165 -4 6 -13 30 -20 55
-7 25 -19 52 -26 60 -7 8 -20 38 -30 65 -22 61 -52 104 -119 170 -64 63 -119
105 -171 129 -46 20 -158 95 -163 108 -2 4 -14 8 -26 8 -22 0 -66 33 -66 49 0
23 -78 53 -158 62 -46 5 -92 14 -102 19 -29 15 -63 11 -89 -10z m-156 -3050
c3 -5 1 -10 -4 -10 -6 0 -11 5 -11 10 0 6 2 10 4 10 3 0 8 -4 11 -10z m-20
-20 c3 -5 1 -10 -4 -10 -6 0 -11 5 -11 10 0 6 2 10 4 10 3 0 8 -4 11 -10z"/>
</g>
</svg>
